<?xml version="1.0" standalone="no"?><!DOCTYPE svg PUBLIC "-//W3C//DTD SVG 1.1//EN" "http://www.w3.org/Graphics/SVG/1.1/DTD/svg11.dtd"><svg t="1679366825603" class="icon" viewBox="0 0 1024 1024" version="1.1" xmlns="http://www.w3.org/2000/svg" p-id="1684" xmlns:xlink="http://www.w3.org/1999/xlink" width="200" height="200"><path d="M170.837333 245.333333a32 32 0 0 1 32-32h614.485334a32 32 0 0 1 0 64H202.837333a32 32 0 0 1-32-32zM456.533333 416a32 32 0 0 1 32-32h328.746667a32 32 0 0 1 0 64H488.533333a32 32 0 0 1-32-32zM456.490667 586.666667a32 32 0 0 1 32-32h328.576a32 32 0 0 1 0 64H488.533333a32 32 0 0 1-32-32zM170.666667 757.333333a32 32 0 0 1 32-32h614.229333a32 32 0 0 1 0 64H202.666667a32 32 0 0 1-32-32z" fill="#666666" p-id="1685"></path><path d="M180.096 484.352a21.333333 21.333333 0 0 0 0 33.962667l167.466667 127.573333a21.333333 21.333333 0 0 0 34.261333-16.938667V373.76a21.333333 21.333333 0 0 0-34.261333-16.981333l-167.466667 127.573333z" fill="#666666" p-id="1686"></path></svg>