<?xml version="1.0" standalone="no"?><!DOCTYPE svg PUBLIC "-//W3C//DTD SVG 1.1//EN" "http://www.w3.org/Graphics/SVG/1.1/DTD/svg11.dtd"><svg t="1679366819722" class="icon" viewBox="0 0 1024 1024" version="1.1" xmlns="http://www.w3.org/2000/svg" p-id="1540" xmlns:xlink="http://www.w3.org/1999/xlink" width="200" height="200"><path d="M171.136 245.333333a32 32 0 0 1 32-32h614.485333a32 32 0 0 1 0 64H203.136a32 32 0 0 1-32-32zM170.666667 416A32 32 0 0 1 202.666667 384h328.789333a32 32 0 0 1 0 64H202.666667A32 32 0 0 1 170.666667 416zM170.88 586.666667a32 32 0 0 1 32-32h328.576a32 32 0 0 1 0 64H202.88a32 32 0 0 1-32-32zM170.965333 757.333333a32 32 0 0 1 32-32h614.229334a32 32 0 0 1 0 64H202.965333a32 32 0 0 1-32-32z" fill="#666666" p-id="1541"></path><path d="M839.850667 484.352a21.333333 21.333333 0 0 1 0 33.962667l-167.466667 127.573333a21.333333 21.333333 0 0 1-34.261333-16.938667V373.76a21.333333 21.333333 0 0 1 34.261333-16.981333l167.466667 127.573333z" fill="#666666" p-id="1542"></path></svg>